<?xml version="1.0" encoding="UTF-8" standalone="no"?>
<!-- Created with Inkscape (http://www.inkscape.org/) -->

<svg
   xmlns:dc="http://purl.org/dc/elements/1.1/"
   xmlns:cc="http://creativecommons.org/ns#"
   xmlns:rdf="http://www.w3.org/1999/02/22-rdf-syntax-ns#"
   xmlns:svg="http://www.w3.org/2000/svg"
   xmlns="http://www.w3.org/2000/svg"
   xmlns:sodipodi="http://sodipodi.sourceforge.net/DTD/sodipodi-0.dtd"
   xmlns:inkscape="http://www.inkscape.org/namespaces/inkscape"
   id="svg7384"
   sodipodi:docname="vr-symbolic-20.svg"
   version="1.1"
   inkscape:version="0.92.2 2405546, 2018-03-11"
   height="20"
   width="20"
   inkscape:export-filename="/home/bmonkey/code/steamvr/sources/gnomevr-extension/gnomevr-extension@collabora.com/vr-symbolic.png"
   inkscape:export-xdpi="90"
   inkscape:export-ydpi="90">
  <metadata
     id="metadata90">
    <rdf:RDF>
      <cc:Work
         rdf:about="">
        <dc:format>image/svg+xml</dc:format>
        <dc:type
           rdf:resource="http://purl.org/dc/dcmitype/StillImage" />
        <dc:title>Gnome Symbolic Icon Theme</dc:title>
      </cc:Work>
    </rdf:RDF>
  </metadata>
  <sodipodi:namedview
     inkscape:cy="9.4386323"
     pagecolor="#555753"
     borderopacity="1"
     showborder="true"
     inkscape:bbox-paths="false"
     guidetolerance="10"
     inkscape:window-width="2560"
     showguides="true"
     inkscape:object-nodes="true"
     inkscape:snap-bbox="true"
     inkscape:pageshadow="2"
     inkscape:guide-bbox="true"
     inkscape:snap-nodes="false"
     bordercolor="#666666"
     objecttolerance="10"
     id="namedview88"
     showgrid="false"
     inkscape:window-maximized="1"
     inkscape:window-x="0"
     inkscape:snap-global="true"
     inkscape:window-y="27"
     gridtolerance="10"
     inkscape:window-height="1376"
     inkscape:snap-to-guides="true"
     inkscape:current-layer="layer12"
     inkscape:zoom="32"
     inkscape:cx="6.0364182"
     inkscape:snap-grids="true"
     inkscape:pageopacity="1">
    <inkscape:grid
       spacingx="1"
       spacingy="1"
       id="grid4866"
       empspacing="2"
       enabled="true"
       type="xygrid"
       snapvisiblegridlinesonly="true"
       visible="true"
       originx="0"
       originy="0" />
  </sodipodi:namedview>
  <title
     id="title9167">Gnome Symbolic Icon Theme</title>
  <defs
     id="defs7386" />
  <g
     inkscape:label="status"
     transform="translate(-100,-682)"
     inkscape:groupmode="layer"
     id="layer9"
     style="display:inline" />
  <g
     inkscape:label="devices"
     transform="translate(-100,-682)"
     inkscape:groupmode="layer"
     id="layer10" />
  <g
     inkscape:label="apps"
     transform="translate(-100,-682)"
     inkscape:groupmode="layer"
     id="layer11" />
  <g
     inkscape:label="actions"
     transform="translate(-100,-682)"
     inkscape:groupmode="layer"
     id="layer12">
    <path
       style="color:#000000;clip-rule:nonzero;display:inline;overflow:visible;visibility:visible;opacity:1;isolation:auto;mix-blend-mode:normal;color-interpolation:sRGB;color-interpolation-filters:linearRGB;solid-color:#000000;solid-opacity:1;vector-effect:none;fill:#bebebe;fill-opacity:1;fill-rule:evenodd;stroke:none;stroke-width:2.53542733;stroke-linecap:butt;stroke-linejoin:miter;stroke-miterlimit:4;stroke-dasharray:none;stroke-dashoffset:0;stroke-opacity:1;marker:none;color-rendering:auto;image-rendering:auto;shape-rendering:auto;text-rendering:auto;enable-background:accumulate"
       d="m 101.71875,685.82062 c -0.70225,0 -1.26758,0.56533 -1.26758,1.26756 v 9.82363 c 0,0.70222 0.56533,1.26757 1.26758,1.26757 h 5.16203 c 0.70223,0 1.01582,-0.61201 1.26757,-1.26757 l 0.57419,-1.49533 c 0.2529,-0.65864 0.57194,-1.27747 1.27747,-1.27747 0.70552,0 0.97826,0.63853 1.27746,1.27747 l 0.70024,1.49533 c 0.29779,0.63595 0.56534,1.26757 1.26757,1.26757 h 5.03598 c 0.70224,0 1.26757,-0.56535 1.26757,-1.26757 v -9.82363 c 0,-0.70223 -0.56533,-1.26756 -1.26757,-1.26756 z m 3.50808,1.86173 c 1.7939,0 3.24814,1.45424 3.24814,3.24814 0,1.7939 -1.45424,3.24814 -3.24814,3.24814 -1.7939,0 -3.24813,-1.45424 -3.24813,-3.24814 0,-1.7939 1.45422,-3.24814 3.24813,-3.24814 z m 9.54636,0 c 1.79389,0 3.24813,1.45424 3.24813,3.24814 0,1.7939 -1.45424,3.24814 -3.24813,3.24814 -1.79391,0 -3.24814,-1.45424 -3.24814,-3.24814 0,-1.7939 1.45423,-3.24814 3.24814,-3.24814 z"
       id="rect4526-93"
       inkscape:connector-curvature="0"
       sodipodi:nodetypes="ssssssssssssssssssssssssss" />
  </g>
  <g
     inkscape:label="places"
     transform="translate(-100,-682)"
     inkscape:groupmode="layer"
     id="layer13" />
  <g
     inkscape:label="mimetypes"
     transform="translate(-100,-682)"
     inkscape:groupmode="layer"
     id="layer14" />
  <g
     inkscape:label="emblems"
     transform="translate(-100,-682)"
     inkscape:groupmode="layer"
     id="layer15"
     style="display:inline" />
  <g
     inkscape:label="categories"
     transform="translate(-100,-682)"
     inkscape:groupmode="layer"
     id="g4953"
     style="display:inline" />
</svg>
